#Comment line ignore any data following # character 
#Hierarchical Translation and Rotation (.htr) file 
[Header]	
#Header keywords are followed by a single value 
FileType HTR		#Single word string
DataType HTRS		#Translation followed by rotation and scale data
FileVersion 1		#integer
NumSegments 84		#integer
NumFrames 2		#integer
DataFrameRate 30		#integer, data frame rate in this file
EulerRotationOrder ZYX
CalibrationUnits mm
RotationUnits Degrees
GlobalAxisofGravity Y
BoneLengthAxis Y
ScaleFactor 1.00
[SegmentNames&Hierarchy]
#CHILD	PARENT
MASTER GLOBAL
root MASTER
chest root
L_mid_tent01 root
R_mid_tent01 root
spine01 root
Bip01_Neck chest
L_humerus chest
R_humerus chest
weapon_bone chest
Bip01_Head Bip01_Neck
eye_left_bone Bip01_Head
eye_right_bone Bip01_Head
L_forearm L_humerus
L_front_hand L_forearm
L_weapon_bone L_forearm
L_front_hand01_01 L_front_hand
L_front_hand02_01 L_front_hand
L_front_hand03_01 L_front_hand
L_front_hand01_02 L_front_hand01_01
L_front_hand02_02 L_front_hand02_01
L_front_hand03_02 L_front_hand03_01
R_forearm R_humerus
R_front_hand R_forearm
R_weapon_bone R_forearm
R_front_hand01_01 R_front_hand
R_front_hand02_01 R_front_hand
R_front_hand03_01 R_front_hand
R_front_hand01_02 R_front_hand01_01
R_front_hand02_02 R_front_hand02_01
R_front_hand03_02 R_front_hand03_01
null_rope01_connect L_mid_tent01
Rope1_Seg01 null_rope01_connect
Rope1_Seg02 Rope1_Seg01
Rope1_Seg03 Rope1_Seg02
Rope1_Seg04 Rope1_Seg03
Rope1_Seg05 Rope1_Seg04
Rope1_Seg06 Rope1_Seg05
Rope1_Seg07 Rope1_Seg06
Rope1_Seg09 Rope1_Seg07
L_mid_hand01 Rope1_Seg09
L_mid_hand02 Rope1_Seg09
L_mid_hand03 Rope1_Seg09
null_rope02_connect R_mid_tent01
Rope2_Seg01 null_rope02_connect
Rope2_Seg02 Rope2_Seg01
Rope2_Seg03 Rope2_Seg02
Rope2_Seg04 Rope2_Seg03
Rope2_Seg05 Rope2_Seg04
Rope2_Seg06 Rope2_Seg05
Rope2_Seg07 Rope2_Seg06
Rope2_Seg09 Rope2_Seg07
R_mid_hand01 Rope2_Seg09
R_mid_hand02 Rope2_Seg09
R_mid_hand03 Rope2_Seg09
spine02 spine01
spine03 spine02
pelvis spine03
null_rope03_connect pelvis
null_rope04_connect pelvis
Rope3_Seg01 null_rope03_connect
Rope3_Seg02 Rope3_Seg01
Rope3_Seg03 Rope3_Seg02
Rope3_Seg04 Rope3_Seg03
Rope3_Seg05 Rope3_Seg04
Rope3_Seg06 Rope3_Seg05
Rope3_Seg07 Rope3_Seg06
Rope3_Seg08 Rope3_Seg07
Rope3_Seg09 Rope3_Seg08
R_rear_hand01 Rope3_Seg09
R_rear_hand02 Rope3_Seg09
R_rear_hand03 Rope3_Seg09
Rope4_Seg01 null_rope04_connect
Rope4_Seg02 Rope4_Seg01
Rope4_Seg03 Rope4_Seg02
Rope4_Seg04 Rope4_Seg03
Rope4_Seg05 Rope4_Seg04
Rope4_Seg06 Rope4_Seg05
Rope4_Seg07 Rope4_Seg06
Rope4_Seg08 Rope4_Seg07
Rope4_Seg09 Rope4_Seg08
L_rear_hand01 Rope4_Seg09
L_rear_hand02 Rope4_Seg09
L_rear_hand03 Rope4_Seg09
[BasePosition]
#SegmentName Tx, Ty, Tz, Rx, Ry, Rz, BoneLength
MASTER 0.000000 0.000000 0.000000 -90.000000 0.000000 0.000000 10.000000 
root 0.000000 0.000000 0.000000 0.000000 0.000000 0.000000 10.000000 
chest 0.000000 0.000000 0.000000 0.000000 0.000000 0.000000 10.000000 
L_mid_tent01 0.000000 0.000000 0.000000 0.000000 0.000000 0.000000 10.000000 
R_mid_tent01 0.000000 0.000000 0.000000 0.000000 0.000000 0.000000 10.000000 
spine01 0.000000 0.000000 0.000000 0.000000 0.000000 0.000000 10.000000 
Bip01_Neck 0.000000 0.000000 0.000000 0.000000 0.000000 0.000000 10.000000 
L_humerus 0.000000 0.000000 0.000000 0.000000 0.000000 0.000000 10.000000 
R_humerus 0.000000 0.000000 0.000000 0.000000 0.000000 0.000000 10.000000 
weapon_bone 0.000000 0.000000 0.000000 0.000000 0.000000 0.000000 10.000000 
Bip01_Head 0.000000 0.000000 0.000000 0.000000 0.000000 0.000000 10.000000 
eye_left_bone 0.000000 0.000000 0.000000 0.000000 0.000000 0.000000 10.000000 
eye_right_bone 0.000000 0.000000 0.000000 0.000000 0.000000 0.000000 10.000000 
L_forearm 0.000000 0.000000 0.000000 0.000000 0.000000 0.000000 10.000000 
L_front_hand 0.000000 0.000000 0.000000 0.000000 0.000000 0.000000 10.000000 
L_weapon_bone 0.000000 0.000000 0.000000 0.000000 0.000000 0.000000 10.000000 
L_front_hand01_01 0.000000 0.000000 0.000000 0.000000 0.000000 0.000000 10.000000 
L_front_hand02_01 0.000000 0.000000 0.000000 0.000000 0.000000 0.000000 10.000000 
L_front_hand03_01 0.000000 0.000000 0.000000 0.000000 0.000000 0.000000 10.000000 
L_front_hand01_02 0.000000 0.000000 0.000000 0.000000 0.000000 0.000000 10.000000 
L_front_hand02_02 0.000000 0.000000 0.000000 0.000000 0.000000 0.000000 10.000000 
L_front_hand03_02 0.000000 0.000000 0.000000 0.000000 0.000000 0.000000 10.000000 
R_forearm 0.000000 0.000000 0.000000 0.000000 0.000000 0.000000 10.000000 
R_front_hand 0.000000 0.000000 0.000000 0.000000 0.000000 0.000000 10.000000 
R_weapon_bone 0.000000 0.000000 0.000000 0.000000 0.000000 0.000000 10.000000 
R_front_hand01_01 0.000000 0.000000 0.000000 0.000000 0.000000 0.000000 10.000000 
R_front_hand02_01 0.000000 0.000000 0.000000 0.000000 0.000000 0.000000 10.000000 
R_front_hand03_01 0.000000 0.000000 0.000000 0.000000 0.000000 0.000000 10.000000 
R_front_hand01_02 0.000000 0.000000 0.000000 0.000000 0.000000 0.000000 10.000000 
R_front_hand02_02 0.000000 0.000000 0.000000 0.000000 0.000000 0.000000 10.000000 
R_front_hand03_02 0.000000 0.000000 0.000000 0.000000 0.000000 0.000000 10.000000 
null_rope01_connect 0.000000 0.000000 0.000000 0.000000 0.000000 0.000000 10.000000 
Rope1_Seg01 0.000000 0.000000 0.000000 0.000000 0.000000 0.000000 10.000000 
Rope1_Seg02 0.000000 0.000000 0.000000 0.000000 0.000000 0.000000 10.000000 
Rope1_Seg03 0.000000 0.000000 0.000000 0.000000 0.000000 0.000000 10.000000 
Rope1_Seg04 0.000000 0.000000 0.000000 0.000000 0.000000 0.000000 10.000000 
Rope1_Seg05 0.000000 0.000000 0.000000 0.000000 0.000000 0.000000 10.000000 
Rope1_Seg06 0.000000 0.000000 0.000000 0.000000 0.000000 0.000000 10.000000 
Rope1_Seg07 0.000000 0.000000 0.000000 0.000000 0.000000 0.000000 10.000000 
Rope1_Seg09 0.000000 0.000000 0.000000 0.000000 0.000000 0.000000 10.000000 
L_mid_hand01 0.000000 0.000000 0.000000 0.000000 0.000000 0.000000 10.000000 
L_mid_hand02 0.000000 0.000000 0.000000 0.000000 0.000000 0.000000 10.000000 
L_mid_hand03 0.000000 0.000000 0.000000 0.000000 0.000000 0.000000 10.000000 
null_rope02_connect 0.000000 0.000000 0.000000 0.000000 0.000000 0.000000 10.000000 
Rope2_Seg01 0.000000 0.000000 0.000000 0.000000 0.000000 0.000000 10.000000 
Rope2_Seg02 0.000000 0.000000 0.000000 0.000000 0.000000 0.000000 10.000000 
Rope2_Seg03 0.000000 0.000000 0.000000 0.000000 0.000000 0.000000 10.000000 
Rope2_Seg04 0.000000 0.000000 0.000000 0.000000 0.000000 0.000000 10.000000 
Rope2_Seg05 0.000000 0.000000 0.000000 0.000000 0.000000 0.000000 10.000000 
Rope2_Seg06 0.000000 0.000000 0.000000 0.000000 0.000000 0.000000 10.000000 
Rope2_Seg07 0.000000 0.000000 0.000000 0.000000 0.000000 0.000000 10.000000 
Rope2_Seg09 0.000000 0.000000 0.000000 0.000000 0.000000 0.000000 10.000000 
R_mid_hand01 0.000000 0.000000 0.000000 0.000000 0.000000 0.000000 10.000000 
R_mid_hand02 0.000000 0.000000 0.000000 0.000000 0.000000 0.000000 10.000000 
R_mid_hand03 0.000000 0.000000 0.000000 0.000000 0.000000 0.000000 10.000000 
spine02 0.000000 0.000000 0.000000 0.000000 0.000000 0.000000 10.000000 
spine03 0.000000 0.000000 0.000000 0.000000 0.000000 0.000000 10.000000 
pelvis 0.000000 0.000000 0.000000 0.000000 0.000000 0.000000 10.000000 
null_rope03_connect 0.000000 0.000000 0.000000 0.000000 0.000000 0.000000 10.000000 
null_rope04_connect 0.000000 0.000000 0.000000 0.000000 0.000000 0.000000 10.000000 
Rope3_Seg01 0.000000 0.000000 0.000000 0.000000 0.000000 0.000000 10.000000 
Rope3_Seg02 0.000000 0.000000 0.000000 0.000000 0.000000 0.000000 10.000000 
Rope3_Seg03 0.000000 0.000000 0.000000 0.000000 0.000000 0.000000 10.000000 
Rope3_Seg04 0.000000 0.000000 0.000000 0.000000 0.000000 0.000000 10.000000 
Rope3_Seg05 0.000000 0.000000 0.000000 0.000000 0.000000 0.000000 10.000000 
Rope3_Seg06 0.000000 0.000000 0.000000 0.000000 0.000000 0.000000 10.000000 
Rope3_Seg07 0.000000 0.000000 0.000000 0.000000 0.000000 0.000000 10.000000 
Rope3_Seg08 0.000000 0.000000 0.000000 0.000000 0.000000 0.000000 10.000000 
Rope3_Seg09 0.000000 0.000000 0.000000 0.000000 0.000000 0.000000 10.000000 
R_rear_hand01 0.000000 0.000000 0.000000 0.000000 0.000000 0.000000 10.000000 
R_rear_hand02 0.000000 0.000000 0.000000 0.000000 0.000000 0.000000 10.000000 
R_rear_hand03 0.000000 0.000000 0.000000 0.000000 0.000000 0.000000 10.000000 
Rope4_Seg01 0.000000 0.000000 0.000000 0.000000 0.000000 0.000000 10.000000 
Rope4_Seg02 0.000000 0.000000 0.000000 0.000000 0.000000 0.000000 10.000000 
Rope4_Seg03 0.000000 0.000000 0.000000 0.000000 0.000000 0.000000 10.000000 
Rope4_Seg04 0.000000 0.000000 0.000000 0.000000 0.000000 0.000000 10.000000 
Rope4_Seg05 0.000000 0.000000 0.000000 0.000000 0.000000 0.000000 10.000000 
Rope4_Seg06 0.000000 0.000000 0.000000 0.000000 0.000000 0.000000 10.000000 
Rope4_Seg07 0.000000 0.000000 0.000000 0.000000 0.000000 0.000000 10.000000 
Rope4_Seg08 0.000000 0.000000 0.000000 0.000000 0.000000 0.000000 10.000000 
Rope4_Seg09 0.000000 0.000000 0.000000 0.000000 0.000000 0.000000 10.000000 
L_rear_hand01 0.000000 0.000000 0.000000 0.000000 0.000000 0.000000 10.000000 
L_rear_hand02 0.000000 0.000000 0.000000 0.000000 0.000000 0.000000 10.000000 
L_rear_hand03 0.000000 0.000000 0.000000 0.000000 0.000000 0.000000 10.000000 
#Beginning of Data. Separated by tabs
#Fr	Tx	Ty	Tz	Rx	Ry	Rz	SF
[MASTER]
169 2114.471680 1332.823242 -1727.289429 0.001346 0.001923 -20.001186 3038.245605
170 2215.812256 1367.413330 -1767.784668 0.001346 0.001923 -20.001186 3147.174316
[root]
169 -528.214233 -189.813156 4447.910156 -89.920860 -22.872364 -123.132477 4483.184570
170 -520.315918 -180.116119 4584.754883 -90.894325 -22.645668 -121.507317 4617.699219
[chest]
169 -84.512650 -34.090519 0.000000 24.947258 7.775208 142.107285 91.129311
170 -84.512650 -34.090519 0.000000 27.885088 7.644032 141.877289 91.129311
[L_mid_tent01]
169 27.298639 22.179508 -249.918808 -2.848869 11.789763 48.047867 252.381760
170 27.298637 22.179510 -249.918808 -3.588417 16.827246 44.962288 252.381760
[R_mid_tent01]
169 23.228794 24.509907 226.238495 172.252151 -14.190047 64.634315 228.744751
170 23.228794 24.509907 226.238495 170.428665 -16.375118 68.216003 228.744751
[spine01]
169 -0.361383 -0.195265 0.000000 -0.000001 -0.000007 22.052340 0.410763
170 -0.361383 -0.195265 0.000000 -0.000001 -0.000007 22.052340 0.410763
[Bip01_Neck]
169 165.484543 71.581718 0.000119 176.643677 -1.657967 43.431911 180.302734
170 165.484543 71.581718 0.000119 176.643677 -1.657967 43.431911 180.302734
[L_humerus]
169 -13.983130 -135.272980 -120.471481 144.465012 76.258453 -129.870529 181.680161
170 -13.983130 -135.272980 -120.471481 115.678780 79.943626 -158.873245 181.680161
[R_humerus]
169 -13.983309 -135.273102 125.287651 120.697929 -57.413963 -27.258467 184.909012
170 -13.983309 -135.273102 125.287651 104.415649 -59.086384 -11.097279 184.909012
[weapon_bone]
169 235.964890 -300.705902 0.000000 0.000000 -89.951546 -128.212341 382.234833
170 235.964890 -300.705902 0.000000 0.000000 -89.951546 -128.212341 382.234833
[Bip01_Head]
169 164.113144 158.462997 53.316650 3.241570 2.797451 -43.899910 234.278275
170 164.113144 158.462982 53.316650 -3.538011 2.796675 -43.898197 234.278275
[eye_left_bone]
169 -24.626970 125.451866 -64.772606 0.000000 -90.000000 -99.840431 143.318359
170 -24.626970 125.451866 -64.772606 0.000000 -90.000000 -99.840431 143.318359
[eye_right_bone]
169 -24.626970 125.451866 64.327362 0.000000 -89.965736 80.156380 143.117676
170 -24.626970 125.451866 64.327362 0.000000 -89.965736 80.156380 143.117676
[L_forearm]
169 322.776093 0.000000 -0.000119 0.000141 0.002343 -83.098061 322.776093
170 322.776093 0.000000 -0.000119 0.000098 0.002345 -85.216942 322.776093
[L_front_hand]
169 241.149185 -0.042021 -3.300071 -15.463369 0.021580 -13.005721 241.171753
170 241.149185 -0.042021 -3.300071 -14.500432 -0.019067 -12.333838 241.171753
[L_weapon_bone]
169 156.183838 0.000000 0.000000 0.000014 0.000007 0.000001 156.183838
170 156.183838 0.000000 0.000000 0.000014 0.000007 0.000001 156.183838
[L_front_hand01_01]
169 86.095154 20.947098 -0.655860 -0.366594 -0.477154 75.385574 88.609184
170 86.095154 20.947098 -0.655860 -0.366594 -0.477154 75.385574 88.609184
[L_front_hand02_01]
169 86.935165 -11.437475 24.513514 154.399796 -59.883835 -61.369587 91.046425
170 86.935165 -11.437475 24.513514 154.399796 -59.883835 -61.369587 91.046425
[L_front_hand03_01]
169 86.637497 -14.123976 -20.424902 -153.913849 58.118122 -62.702866 90.126129
170 86.637497 -14.123976 -20.424902 -153.913849 58.118122 -62.702866 90.126129
[L_front_hand01_02]
169 71.020905 -0.000179 0.000030 0.000334 -0.002323 -106.379684 71.020905
170 71.020905 -0.000179 0.000030 0.000334 -0.002323 -106.379684 71.020905
[L_front_hand02_02]
169 71.020927 -0.000119 0.000060 0.000334 -0.002323 -106.379684 71.020927
170 71.020927 -0.000119 0.000060 0.000334 -0.002323 -106.379684 71.020927
[L_front_hand03_02]
169 71.020905 -0.000060 0.000060 0.000334 -0.002323 -106.379684 71.020905
170 71.020905 -0.000060 0.000060 0.000334 -0.002323 -106.379684 71.020905
[R_forearm]
169 322.776428 -0.000060 0.000030 0.102399 -0.185979 -29.809576 322.776428
170 322.776428 -0.000060 0.000030 0.100276 -0.187132 -28.506666 322.776428
[R_front_hand]
169 238.847015 -0.006795 2.210259 42.936222 -10.646152 -26.312963 238.857239
170 238.847015 -0.006795 2.210259 42.936222 -10.646152 -26.312963 238.857239
[R_weapon_bone]
169 155.664093 0.002503 -0.000030 0.003487 0.001180 -90.988930 155.664078
170 155.664093 0.002503 -0.000030 0.003487 0.001180 -90.988930 155.664078
[R_front_hand01_01]
169 87.624611 14.231146 22.918642 -154.633499 -59.950619 61.746044 91.683487
170 87.624611 14.231146 22.918642 -154.633499 -59.950619 61.746044 91.683487
[R_front_hand02_01]
169 89.356956 14.367283 -19.491137 154.602661 58.302849 63.744389 92.579636
170 89.356956 14.367283 -19.491137 154.602661 58.302849 63.744389 92.579636
[R_front_hand03_01]
169 87.286232 -22.307278 -0.143439 0.162155 -0.423168 -75.767921 90.091743
170 87.286232 -22.307278 -0.143439 0.162155 -0.423168 -75.767921 90.091743
[R_front_hand01_02]
169 71.020905 0.000060 0.000119 0.002323 -0.000334 106.381714 71.020905
170 71.020905 0.000060 0.000119 0.002323 -0.000334 106.381714 71.020905
[R_front_hand02_02]
169 71.020844 -0.000030 -0.000119 0.002323 -0.000334 106.381714 71.020836
170 71.020844 -0.000030 -0.000119 0.002323 -0.000334 106.381714 71.020836
[R_front_hand03_02]
169 71.020905 0.000000 0.000030 0.002323 -0.000334 106.381714 71.020905
170 71.020905 0.000000 0.000030 0.002323 -0.000334 106.381714 71.020905
[null_rope01_connect]
169 328.732483 0.000000 -0.000238 -98.437675 -27.148598 159.019943 328.732483
170 328.732483 0.000000 -0.000238 -101.395706 -23.393431 163.148926 328.732483
[Rope1_Seg01]
169 -0.000028 0.000000 0.000000 2.544709 12.690297 -159.118484 0.000028
170 -0.000027 0.000000 0.000000 -6.267996 7.550581 -169.012451 0.000027
[Rope1_Seg02]
169 139.999863 -0.000179 0.000000 7.137217 22.727520 -2.433459 139.999863
170 139.999863 -0.000179 0.000000 8.027879 24.650429 0.561451 139.999863
[Rope1_Seg03]
169 139.999924 0.000060 -0.000060 0.575065 13.054432 -5.918202 139.999924
170 139.999924 0.000060 -0.000060 0.803347 13.209067 -3.614660 139.999924
[Rope1_Seg04]
169 139.999924 -0.000060 -0.000119 -0.267496 14.355321 -2.215085 139.999924
170 139.999924 -0.000060 -0.000119 -0.678769 17.275063 -0.886540 139.999924
[Rope1_Seg05]
169 139.999832 0.000119 -0.000060 -2.927694 19.665354 1.844343 139.999832
170 139.999832 0.000119 -0.000060 -5.251868 24.275446 1.935668 139.999832
[Rope1_Seg06]
169 139.999954 0.000119 -0.000060 -3.262572 10.975277 1.616941 139.999954
170 139.999954 0.000119 -0.000060 -4.854835 11.971203 2.036002 139.999954
[Rope1_Seg07]
169 139.999985 0.000060 0.000000 -2.065171 5.421770 0.904337 139.999985
170 139.999985 0.000060 0.000000 -2.941120 5.689507 1.381279 139.999985
[Rope1_Seg09]
169 121.602913 0.000119 -0.000089 -89.793175 -1.359789 0.847147 121.602913
170 121.602913 0.000119 -0.000089 -89.793175 -1.359789 0.847147 121.602913
[L_mid_hand01]
169 103.859421 1.038730 8.195221 130.544373 -67.584534 -38.866943 104.187431
170 103.859421 1.038730 8.195221 130.544373 -67.584534 -38.866943 104.187431
[L_mid_hand02]
169 105.572853 -4.139662 -10.864139 -168.923172 43.409309 -73.498886 106.211075
170 105.572853 -4.139662 -10.864139 -168.923172 43.409309 -73.498886 106.211075
[L_mid_hand03]
169 104.641464 17.579376 -3.913581 -6.012627 17.808174 74.893669 106.179977
170 104.641464 17.579376 -3.913581 -6.012627 17.808174 74.893669 106.179977
[null_rope02_connect]
169 328.732849 0.000179 -0.000119 95.883850 52.508446 -135.034698 328.732849
170 328.732849 0.000179 -0.000119 97.075050 56.250530 -130.423996 328.732849
[Rope2_Seg01]
169 0.000028 0.000000 0.000000 -43.997948 34.458836 -121.313751 0.000028
170 0.000027 0.000000 0.000000 -38.202465 32.706768 -111.011635 0.000027
[Rope2_Seg02]
169 139.999741 -0.000060 -0.000119 0.275039 9.811852 14.583803 139.999756
170 139.999741 -0.000060 -0.000119 2.927878 12.448446 14.961951 139.999756
[Rope2_Seg03]
169 140.000107 0.000030 0.000000 -0.424660 10.074879 17.875757 140.000107
170 140.000107 0.000030 0.000000 1.485256 12.309010 17.308533 140.000107
[Rope2_Seg04]
169 139.999802 0.000000 -0.000060 -1.096851 8.913218 13.855274 139.999802
170 139.999802 0.000000 -0.000060 -0.516623 11.964303 11.373433 139.999802
[Rope2_Seg05]
169 139.999985 -0.000060 0.000119 -1.047826 7.027661 3.659160 139.999985
170 139.999985 -0.000060 0.000119 -1.528946 10.774761 2.952906 139.999985
[Rope2_Seg06]
169 139.999893 -0.000030 -0.000119 -0.972061 3.921111 2.358839 139.999893
170 139.999893 -0.000030 -0.000119 -1.629872 5.817245 2.405252 139.999893
[Rope2_Seg07]
169 139.999893 0.000060 -0.000060 -0.834890 2.345906 1.918856 139.999893
170 139.999893 0.000060 -0.000060 -1.339466 3.441812 1.817094 139.999893
[Rope2_Seg09]
169 121.338966 0.000089 -0.000060 33.793236 -1.359788 -0.847141 121.338966
170 121.338966 0.000089 -0.000060 33.793236 -1.359788 -0.847141 121.338966
[R_mid_hand01]
169 104.680779 11.144459 -10.335981 -16.212059 45.237240 70.462852 105.778534
170 104.680779 11.144459 -10.335981 -16.212059 45.237240 70.462852 105.778534
[R_mid_hand02]
169 104.070427 2.443552 8.231699 49.067368 -67.749771 39.286453 104.424065
170 104.070427 2.443552 8.231699 49.067368 -67.749771 39.286453 104.424065
[R_mid_hand03]
169 106.028137 -11.221827 -5.996406 -177.101105 15.551026 -76.585571 106.788818
170 106.028137 -11.221827 -5.996406 -177.101105 15.551026 -76.585571 106.788818
[spine02]
169 129.756927 0.001550 0.000119 0.378271 -4.042949 -13.198784 129.756927
170 129.756927 0.001550 0.000119 0.376820 -4.043103 -13.180883 129.756927
[spine03]
169 78.613892 0.081731 -4.899001 1.908487 3.826844 16.653410 78.766426
170 78.613892 0.081732 -4.899000 1.907451 3.827466 16.638380 78.766426
[pelvis]
169 169.435242 0.051022 0.000000 -0.061040 -0.180032 14.453605 169.435257
170 169.435242 0.051022 0.000000 -0.060999 -0.180046 14.427315 169.435257
[null_rope03_connect]
169 -1.257226 -2.466202 137.391083 -88.513329 -37.181412 162.041870 137.418976
170 -1.257226 -2.466202 137.391083 -89.635361 -38.436661 162.503601 137.418976
[null_rope04_connect]
169 -1.259640 -2.480268 -137.844437 -88.513329 -37.181412 162.041870 137.872513
170 -1.259640 -2.480268 -137.844437 -89.635361 -38.436661 162.503601 137.872513
[Rope3_Seg01]
169 0.000000 0.000124 0.000000 4.923326 15.802384 -113.251488 0.000124
170 0.000000 0.000125 0.000000 10.459894 11.218541 -104.745781 0.000125
[Rope3_Seg02]
169 139.999924 -0.000119 0.000060 -0.554089 17.669670 12.277415 139.999924
170 139.999924 -0.000119 0.000060 0.590105 17.237764 13.357120 139.999924
[Rope3_Seg03]
169 139.999924 -0.000119 0.000119 0.457936 5.722332 8.221131 139.999924
170 139.999924 -0.000119 0.000119 0.206682 3.260836 5.110591 139.999924
[Rope3_Seg04]
169 139.999924 0.000119 0.000000 8.609255 28.377554 13.860746 139.999924
170 139.999924 0.000119 0.000000 11.648157 29.148767 20.738356 139.999924
[Rope3_Seg05]
169 139.999924 -0.000238 0.000060 18.912977 26.968153 8.080228 139.999924
170 139.999924 -0.000238 0.000060 38.995449 33.073364 17.400105 139.999924
[Rope3_Seg06]
169 139.999893 -0.000119 -0.000060 9.217505 8.755195 0.031470 139.999893
170 139.999893 -0.000119 -0.000060 17.926216 9.087852 -1.360328 139.999893
[Rope3_Seg07]
169 139.999771 0.000060 -0.000119 6.304884 4.839945 -0.768159 139.999771
170 139.999771 0.000060 -0.000119 10.403171 4.226996 -2.103622 139.999771
[Rope3_Seg08]
169 139.999985 -0.000060 0.000000 4.013471 2.625007 -0.718383 139.999985
170 139.999985 -0.000060 0.000000 5.878686 2.041574 -1.533172 139.999985
[Rope3_Seg09]
169 90.185997 -0.000179 -0.000060 89.793228 -1.359877 -0.847183 90.185997
170 90.185997 -0.000179 -0.000060 89.793228 -1.359877 -0.847183 90.185997
[R_rear_hand01]
169 103.366196 -6.073594 -10.757982 -177.714203 24.565960 -73.910950 104.101845
170 103.366196 -6.073594 -10.757982 -177.714203 24.565960 -73.910950 104.101845
[R_rear_hand02]
169 100.509819 12.039542 -7.992327 -12.874829 36.868488 72.167213 101.543350
170 100.509819 12.039542 -7.992327 -12.874829 36.868488 72.167213 101.543350
[R_rear_hand03]
169 101.539970 5.215704 5.435467 71.484581 -71.816628 21.513813 101.819031
170 101.539970 5.215704 5.435467 71.484581 -71.816628 21.513813 101.819031
[Rope4_Seg01]
169 -0.000249 0.000000 0.000000 -22.470024 -58.512074 165.347824 0.000249
170 -0.000250 0.000000 0.000000 -17.142145 -64.107758 159.820038 0.000250
[Rope4_Seg02]
169 139.999985 0.000060 0.000119 1.425150 16.182741 6.731536 139.999985
170 139.999985 0.000060 0.000119 0.923597 11.888638 3.693274 139.999985
[Rope4_Seg03]
169 139.999924 0.000000 -0.000238 5.190830 23.381474 8.446700 139.999924
170 139.999924 0.000000 -0.000238 2.733000 17.877798 5.475764 139.999924
[Rope4_Seg04]
169 139.999985 0.000000 0.000119 20.784985 17.006216 -0.032068 139.999985
170 139.999985 0.000000 0.000119 8.864192 21.624523 4.870587 139.999985
[Rope4_Seg05]
169 139.999802 -0.000060 -0.000119 20.540089 10.219930 0.995656 139.999802
170 139.999802 -0.000060 -0.000119 9.011203 9.578660 0.818956 139.999802
[Rope4_Seg06]
169 139.999924 0.000000 0.000060 160.213760 65.135078 7.904506 139.999924
170 139.999924 0.000000 0.000060 37.287571 13.994673 0.697522 139.999924
[Rope4_Seg07]
169 139.999802 0.000000 0.000000 15.206050 -45.221756 -34.105732 139.999802
170 139.999802 0.000000 0.000000 22.112062 49.201096 -133.857971 139.999802
[Rope4_Seg08]
169 139.999924 0.000000 0.000119 -1.377979 -5.396809 -2.574739 139.999924
170 139.999924 0.000000 0.000119 -1.628458 -15.295594 -9.587720 139.999924
[Rope4_Seg09]
169 90.185791 0.000060 0.000060 -135.617828 2.228885 0.850567 90.185791
170 90.185791 0.000060 0.000060 -135.617828 2.228885 0.850567 90.185791
[L_rear_hand01]
169 101.696655 -8.392275 -7.654577 -12.874829 -36.868488 107.832764 102.329041
170 101.696655 -8.392275 -7.654577 -12.874829 -36.868488 107.832764 102.329041
[L_rear_hand02]
169 102.726799 -1.568258 5.773216 71.484581 71.816628 158.486160 102.900848
170 102.726799 -1.568258 5.773216 71.484581 71.816628 158.486160 102.900848
[L_rear_hand03]
169 104.552910 9.721220 -10.420293 -177.714203 -24.565960 -106.089035 105.519653
170 104.552910 9.721220 -10.420293 -177.714203 -24.565960 -106.089035 105.519653
